<svg width="44" height="39" viewBox="0 0 44 39" fill="none" xmlns="http://www.w3.org/2000/svg">
<g clip-path="url(#clip0_13575_50)">
<path d="M43.941 38.9565H42.5687V37.5652H43.941V38.9565Z" fill="#ECD979"/>
<path d="M42.5687 38.9565H41.1964V37.5652H42.5687V38.9565Z" fill="#ECD979"/>
<path d="M37.0794 38.9565H35.7071V37.5652H37.0794V38.9565Z" fill="#ECD979"/>
<path d="M35.7071 38.9565H34.3347V37.5652H35.7071V38.9565Z" fill="#ECD979"/>
<path d="M34.3348 38.9565H32.9624V37.5652H34.3348V38.9565Z" fill="#ECD979"/>
<path d="M26.1008 38.9565H24.7285V37.5652H26.1008V38.9565Z" fill="#ECD979"/>
<path d="M17.8673 38.9565H16.4949V37.5652H17.8673V38.9565Z" fill="#ECD979"/>
<path d="M9.63334 38.9565H8.26102V37.5652H9.63334V38.9565Z" fill="#ECD979"/>
<path d="M8.26102 38.9565H6.8887V37.5652H8.26102V38.9565Z" fill="#ECD979"/>
<path d="M6.88871 38.9565H5.51639V37.5652H6.88871V38.9565Z" fill="#ECD979"/>
<path d="M1.39942 38.9565H0.0270996V37.5652H1.39942V38.9565Z" fill="#ECD979"/>
<path d="M43.941 37.5652H42.5687V36.1739H43.941V37.5652Z" fill="#ECD979"/>
<path d="M38.4517 37.5652H37.0794V36.1739H38.4517V37.5652Z" fill="#ECD979"/>
<path d="M37.0794 37.5652H35.7071V36.1739H37.0794V37.5652Z" fill="#ECD979"/>
<path d="M35.7071 37.5652H34.3347V36.1739H35.7071V37.5652Z" fill="#ECD979"/>
<path d="M26.1008 37.5652H24.7285V36.1739H26.1008V37.5652Z" fill="#ECD979"/>
<path d="M24.7285 37.5652H23.3562V36.1739H24.7285V37.5652Z" fill="#ECD979"/>
<path d="M19.2396 37.5652H17.8673V36.1739H19.2396V37.5652Z" fill="#ECD979"/>
<path d="M17.8673 37.5652H16.4949V36.1739H17.8673V37.5652Z" fill="#ECD979"/>
<path d="M8.26102 37.5652H6.8887V36.1739H8.26102V37.5652Z" fill="#ECD979"/>
<path d="M6.88871 37.5652H5.51639V36.1739H6.88871V37.5652Z" fill="#ECD979"/>
<path d="M5.51638 37.5652H4.14406V36.1739H5.51638V37.5652Z" fill="#ECD979"/>
<path d="M39.824 36.1739H38.4517V34.7826H39.824V36.1739Z" fill="#ECD979"/>
<path d="M38.4517 36.1739H37.0794V34.7826H38.4517V36.1739Z" fill="#ECD979"/>
<path d="M37.0794 36.1739H35.7071V34.7826H37.0794V36.1739Z" fill="#ECD979"/>
<path d="M26.1008 36.1739H24.7285V34.7826H26.1008V36.1739Z" fill="#ECD979"/>
<path d="M24.7285 36.1739H23.3562V34.7826H24.7285V36.1739Z" fill="#ECD979"/>
<path d="M23.3562 36.1739H21.9839V34.7826H23.3562V36.1739Z" fill="#ECD979"/>
<path d="M20.6119 36.1739H19.2396V34.7826H20.6119V36.1739Z" fill="#ECD979"/>
<path d="M19.2396 36.1739H17.8673V34.7826H19.2396V36.1739Z" fill="#ECD979"/>
<path d="M17.8673 36.1739H16.4949V34.7826H17.8673V36.1739Z" fill="#ECD979"/>
<path d="M6.88871 36.1739H5.51639V34.7826H6.88871V36.1739Z" fill="#ECD979"/>
<path d="M5.51638 36.1739H4.14406V34.7826H5.51638V36.1739Z" fill="#ECD979"/>
<path d="M4.14406 36.1739H2.77174V34.7826H4.14406V36.1739Z" fill="#ECD979"/>
<path d="M41.1964 34.7826H39.824V33.3913H41.1964V34.7826Z" fill="#ECD979"/>
<path d="M39.824 34.7826H38.4517V33.3913H39.824V34.7826Z" fill="#ECD979"/>
<path d="M38.4517 34.7826H37.0794V33.3913H38.4517V34.7826Z" fill="#ECD979"/>
<path d="M31.5901 34.7826H30.2178V33.3913H31.5901V34.7826Z" fill="#ECD979"/>
<path d="M30.2178 34.7826H28.8455V33.3913H30.2178V34.7826Z" fill="#ECD979"/>
<path d="M28.8455 34.7826H27.4732V33.3913H28.8455V34.7826Z" fill="#ECD979"/>
<path d="M24.7285 34.7826H23.3562V33.3913H24.7285V34.7826Z" fill="#ECD979"/>
<path d="M23.3562 34.7826H21.9839V33.3913H23.3562V34.7826Z" fill="#ECD979"/>
<path d="M20.6119 34.7826H19.2396V33.3913H20.6119V34.7826Z" fill="#ECD979"/>
<path d="M19.2396 34.7826H17.8673V33.3913H19.2396V34.7826Z" fill="#ECD979"/>
<path d="M15.1226 34.7826H13.7503V33.3913H15.1226V34.7826Z" fill="#ECD979"/>
<path d="M13.7503 34.7826H12.378V33.3913H13.7503V34.7826Z" fill="#ECD979"/>
<path d="M12.378 34.7826H11.0057V33.3913H12.378V34.7826Z" fill="#ECD979"/>
<path d="M5.51638 34.7826H4.14406V33.3913H5.51638V34.7826Z" fill="#ECD979"/>
<path d="M4.14406 34.7826H2.77174V33.3913H4.14406V34.7826Z" fill="#ECD979"/>
<path d="M2.77175 34.7826H1.39943V33.3913H2.77175V34.7826Z" fill="#ECD979"/>
<path d="M42.5687 33.3913H41.1964V32H42.5687V33.3913Z" fill="#ECD979"/>
<path d="M41.1964 33.3913H39.824V32H41.1964V33.3913Z" fill="#ECD979"/>
<path d="M39.824 33.3913H38.4517V32H39.824V33.3913Z" fill="#ECD979"/>
<path d="M30.2178 33.3913H28.8455V32H30.2178V33.3913Z" fill="#ECD979"/>
<path d="M28.8455 33.3913H27.4732V32H28.8455V33.3913Z" fill="#ECD979"/>
<path d="M27.4731 33.3913H26.1008V32H27.4731V33.3913Z" fill="#ECD979"/>
<path d="M23.3562 33.3913H21.9839V32H23.3562V33.3913Z" fill="#ECD979"/>
<path d="M20.6119 33.3913H19.2396V32H20.6119V33.3913Z" fill="#ECD979"/>
<path d="M16.4949 33.3913H15.1226V32H16.4949V33.3913Z" fill="#ECD979"/>
<path d="M15.1226 33.3913H13.7503V32H15.1226V33.3913Z" fill="#ECD979"/>
<path d="M13.7503 33.3913H12.378V32H13.7503V33.3913Z" fill="#ECD979"/>
<path d="M4.14406 33.3913H2.77174V32H4.14406V33.3913Z" fill="#ECD979"/>
<path d="M2.77175 33.3913H1.39943V32H2.77175V33.3913Z" fill="#ECD979"/>
<path d="M1.39942 33.3913H0.0270996V32H1.39942V33.3913Z" fill="#ECD979"/>
<path d="M42.5687 32H41.1964V30.6087H42.5687V32Z" fill="#ECD979"/>
<path d="M41.1964 32H39.824V30.6087H41.1964V32Z" fill="#ECD979"/>
<path d="M28.8455 32H27.4732V30.6087H28.8455V32Z" fill="#ECD979"/>
<path d="M27.4731 32H26.1008V30.6087H27.4731V32Z" fill="#ECD979"/>
<path d="M26.1008 32H24.7285V30.6087H26.1008V32Z" fill="#ECD979"/>
<path d="M17.8673 32H16.4949V30.6087H17.8673V32Z" fill="#ECD979"/>
<path d="M16.4949 32H15.1226V30.6087H16.4949V32Z" fill="#ECD979"/>
<path d="M15.1226 32H13.7503V30.6087H15.1226V32Z" fill="#ECD979"/>
<path d="M2.77175 32H1.39943V30.6087H2.77175V32Z" fill="#ECD979"/>
<path d="M1.39942 32H0.0270996V30.6087H1.39942V32Z" fill="#ECD979"/>
<path d="M42.5687 30.6087H41.1964V29.2174H42.5687V30.6087Z" fill="#ECD979"/>
<path d="M35.7071 30.6087H34.3347V29.2174H35.7071V30.6087Z" fill="#ECD979"/>
<path d="M23.3562 30.6087H21.9839V29.2174H23.3562V30.6087Z" fill="#ECD979"/>
<path d="M20.6119 30.6087H19.2396V29.2174H20.6119V30.6087Z" fill="#ECD979"/>
<path d="M8.26102 30.6087H6.8887V29.2174H8.26102V30.6087Z" fill="#ECD979"/>
<path d="M1.39942 30.6087H0.0270996V29.2174H1.39942V30.6087Z" fill="#ECD979"/>
<path d="M35.7071 29.2174H34.3347V27.8261H35.7071V29.2174Z" fill="#ECD979"/>
<path d="M34.3348 29.2174H32.9624V27.8261H34.3348V29.2174Z" fill="#ECD979"/>
<path d="M24.7285 29.2174H23.3562V27.8261H24.7285V29.2174Z" fill="#ECD979"/>
<path d="M23.3562 29.2174H21.9839V27.8261H23.3562V29.2174Z" fill="#ECD979"/>
<path d="M20.6119 29.2174H19.2396V27.8261H20.6119V29.2174Z" fill="#ECD979"/>
<path d="M19.2396 29.2174H17.8673V27.8261H19.2396V29.2174Z" fill="#ECD979"/>
<path d="M9.63334 29.2174H8.26102V27.8261H9.63334V29.2174Z" fill="#ECD979"/>
<path d="M8.26102 29.2174H6.8887V27.8261H8.26102V29.2174Z" fill="#ECD979"/>
<path d="M35.7071 27.8261H34.3347V26.4348H35.7071V27.8261Z" fill="#ECD979"/>
<path d="M34.3348 27.8261H32.9624V26.4348H34.3348V27.8261Z" fill="#ECD979"/>
<path d="M32.9624 27.8261H31.5901V26.4348H32.9624V27.8261Z" fill="#ECD979"/>
<path d="M26.1008 27.8261H24.7285V26.4348H26.1008V27.8261Z" fill="#ECD979"/>
<path d="M24.7285 27.8261H23.3562V26.4348H24.7285V27.8261Z" fill="#ECD979"/>
<path d="M19.2396 27.8261H17.8673V26.4348H19.2396V27.8261Z" fill="#ECD979"/>
<path d="M17.8673 27.8261H16.4949V26.4348H17.8673V27.8261Z" fill="#ECD979"/>
<path d="M11.0057 27.8261H9.63335V26.4348H11.0057V27.8261Z" fill="#ECD979"/>
<path d="M9.63334 27.8261H8.26102V26.4348H9.63334V27.8261Z" fill="#ECD979"/>
<path d="M8.26102 27.8261H6.8887V26.4348H8.26102V27.8261Z" fill="#ECD979"/>
<path d="M34.3348 26.4348H32.9624V25.0435H34.3348V26.4348Z" fill="#ECD979"/>
<path d="M32.9624 26.4348H31.5901V25.0435H32.9624V26.4348Z" fill="#ECD979"/>
<path d="M27.4731 26.4348H26.1008V25.0435H27.4731V26.4348Z" fill="#ECD979"/>
<path d="M26.1008 26.4348H24.7285V25.0435H26.1008V26.4348Z" fill="#ECD979"/>
<path d="M17.8673 26.4348H16.4949V25.0435H17.8673V26.4348Z" fill="#ECD979"/>
<path d="M16.4949 26.4348H15.1226V25.0435H16.4949V26.4348Z" fill="#ECD979"/>
<path d="M11.0057 26.4348H9.63335V25.0435H11.0057V26.4348Z" fill="#ECD979"/>
<path d="M9.63334 26.4348H8.26102V25.0435H9.63334V26.4348Z" fill="#ECD979"/>
<path d="M39.824 25.0435H38.4517V23.6522H39.824V25.0435Z" fill="#ECD979"/>
<path d="M38.4517 25.0435H37.0794V23.6522H38.4517V25.0435Z" fill="#ECD979"/>
<path d="M37.0794 25.0435H35.7071V23.6522H37.0794V25.0435Z" fill="#ECD979"/>
<path d="M32.9624 25.0435H31.5901V23.6522H32.9624V25.0435Z" fill="#ECD979"/>
<path d="M28.8455 25.0435H27.4732V23.6522H28.8455V25.0435Z" fill="#ECD979"/>
<path d="M27.4731 25.0435H26.1008V23.6522H27.4731V25.0435Z" fill="#ECD979"/>
<path d="M16.4949 25.0435H15.1226V23.6522H16.4949V25.0435Z" fill="#ECD979"/>
<path d="M15.1226 25.0435H13.7503V23.6522H15.1226V25.0435Z" fill="#ECD979"/>
<path d="M11.0057 25.0435H9.63335V23.6522H11.0057V25.0435Z" fill="#ECD979"/>
<path d="M6.88871 25.0435H5.51639V23.6522H6.88871V25.0435Z" fill="#ECD979"/>
<path d="M5.51638 25.0435H4.14406V23.6522H5.51638V25.0435Z" fill="#ECD979"/>
<path d="M4.14406 25.0435H2.77174V23.6522H4.14406V25.0435Z" fill="#ECD979"/>
<path d="M43.941 23.6522H42.5687V22.2609H43.941V23.6522Z" fill="#ECD979"/>
<path d="M38.4517 23.6522H37.0794V22.2609H38.4517V23.6522Z" fill="#ECD979"/>
<path d="M37.0794 23.6522H35.7071V22.2609H37.0794V23.6522Z" fill="#ECD979"/>
<path d="M35.7071 23.6522H34.3347V22.2609H35.7071V23.6522Z" fill="#ECD979"/>
<path d="M30.2178 23.6522H28.8455V22.2609H30.2178V23.6522Z" fill="#ECD979"/>
<path d="M28.8455 23.6522H27.4732V22.2609H28.8455V23.6522Z" fill="#ECD979"/>
<path d="M15.1226 23.6522H13.7503V22.2609H15.1226V23.6522Z" fill="#ECD979"/>
<path d="M13.7503 23.6522H12.378V22.2609H13.7503V23.6522Z" fill="#ECD979"/>
<path d="M8.26102 23.6522H6.8887V22.2609H8.26102V23.6522Z" fill="#ECD979"/>
<path d="M6.88871 23.6522H5.51639V22.2609H6.88871V23.6522Z" fill="#ECD979"/>
<path d="M5.51638 23.6522H4.14406V22.2609H5.51638V23.6522Z" fill="#ECD979"/>
<path d="M43.941 22.2609H42.5687V20.8696H43.941V22.2609Z" fill="#ECD979"/>
<path d="M42.5687 22.2609H41.1964V20.8696H42.5687V22.2609Z" fill="#ECD979"/>
<path d="M37.0794 22.2609H35.7071V20.8696H37.0794V22.2609Z" fill="#ECD979"/>
<path d="M35.7071 22.2609H34.3347V20.8696H35.7071V22.2609Z" fill="#ECD979"/>
<path d="M34.3348 22.2609H32.9624V20.8696H34.3348V22.2609Z" fill="#ECD979"/>
<path d="M31.5901 22.2609H30.2178V20.8696H31.5901V22.2609Z" fill="#ECD979"/>
<path d="M30.2178 22.2609H28.8455V20.8696H30.2178V22.2609Z" fill="#ECD979"/>
<path d="M21.9842 22.2609H20.6119V20.8696H21.9842V22.2609Z" fill="#ECD979"/>
<path d="M13.7503 22.2609H12.378V20.8696H13.7503V22.2609Z" fill="#ECD979"/>
<path d="M12.378 22.2609H11.0057V20.8696H12.378V22.2609Z" fill="#ECD979"/>
<path d="M9.63334 22.2609H8.26102V20.8696H9.63334V22.2609Z" fill="#ECD979"/>
<path d="M8.26102 22.2609H6.8887V20.8696H8.26102V22.2609Z" fill="#ECD979"/>
<path d="M6.88871 22.2609H5.51639V20.8696H6.88871V22.2609Z" fill="#ECD979"/>
<path d="M1.37232 20.8696H0V19.4783H1.37232V20.8696Z" fill="#ECD979"/>
<path d="M2.77175 20.8696H1.39943V19.4783H2.77175V20.8696Z" fill="#ECD979"/>
<path d="M1.37232 22.2609H0V20.8696H1.37232V22.2609Z" fill="#ECD979"/>
<path d="M1.37232 19.4783H0V18.087H1.37232V19.4783Z" fill="#ECD979"/>
<path d="M43.941 20.8696H42.5687V19.4783H43.941V20.8696Z" fill="#ECD979"/>
<path d="M42.5687 20.8696H41.1964V19.4783H42.5687V20.8696Z" fill="#ECD979"/>
<path d="M41.1964 20.8696H39.824V19.4783H41.1964V20.8696Z" fill="#ECD979"/>
<path d="M23.3562 20.8696H21.9839V19.4783H23.3562V20.8696Z" fill="#ECD979"/>
<path d="M21.9842 20.8696H20.6119V19.4783H21.9842V20.8696Z" fill="#ECD979"/>
<path d="M20.6119 20.8696H19.2396V19.4783H20.6119V20.8696Z" fill="#ECD979"/>
<path d="M43.941 19.4783H42.5687V18.087H43.941V19.4783Z" fill="#ECD979"/>
<path d="M42.5687 19.4783H41.1964V18.087H42.5687V19.4783Z" fill="#ECD979"/>
<path d="M37.0794 19.4783H35.7071V18.087H37.0794V19.4783Z" fill="#ECD979"/>
<path d="M35.7071 19.4783H34.3347V18.087H35.7071V19.4783Z" fill="#ECD979"/>
<path d="M34.3348 19.4783H32.9624V18.087H34.3348V19.4783Z" fill="#ECD979"/>
<path d="M31.5901 19.4783H30.2178V18.087H31.5901V19.4783Z" fill="#ECD979"/>
<path d="M30.2178 19.4783H28.8455V18.087H30.2178V19.4783Z" fill="#ECD979"/>
<path d="M21.9842 19.4783H20.6119V18.087H21.9842V19.4783Z" fill="#ECD979"/>
<path d="M13.7503 19.4783H12.378V18.087H13.7503V19.4783Z" fill="#ECD979"/>
<path d="M12.378 19.4783H11.0057V18.087H12.378V19.4783Z" fill="#ECD979"/>
<path d="M9.63334 19.4783H8.26102V18.087H9.63334V19.4783Z" fill="#ECD979"/>
<path d="M8.26102 19.4783H6.8887V18.087H8.26102V19.4783Z" fill="#ECD979"/>
<path d="M6.88871 19.4783H5.51639V18.087H6.88871V19.4783Z" fill="#ECD979"/>
<path d="M43.941 18.0869H42.5687V16.6956H43.941V18.0869Z" fill="#ECD979"/>
<path d="M38.4517 18.0869H37.0794V16.6956H38.4517V18.0869Z" fill="#ECD979"/>
<path d="M37.0794 18.0869H35.7071V16.6956H37.0794V18.0869Z" fill="#ECD979"/>
<path d="M35.7071 18.0869H34.3347V16.6956H35.7071V18.0869Z" fill="#ECD979"/>
<path d="M30.2178 18.0869H28.8455V16.6956H30.2178V18.0869Z" fill="#ECD979"/>
<path d="M28.8455 18.0869H27.4732V16.6956H28.8455V18.0869Z" fill="#ECD979"/>
<path d="M15.1226 18.0869H13.7503V16.6956H15.1226V18.0869Z" fill="#ECD979"/>
<path d="M13.7503 18.0869H12.378V16.6956H13.7503V18.0869Z" fill="#ECD979"/>
<path d="M8.26102 18.0869H6.8887V16.6956H8.26102V18.0869Z" fill="#ECD979"/>
<path d="M6.88871 18.0869H5.51639V16.6956H6.88871V18.0869Z" fill="#ECD979"/>
<path d="M5.51638 18.0869H4.14406V16.6956H5.51638V18.0869Z" fill="#ECD979"/>
<path d="M39.824 16.6956H38.4517V15.3043H39.824V16.6956Z" fill="#ECD979"/>
<path d="M38.4517 16.6956H37.0794V15.3043H38.4517V16.6956Z" fill="#ECD979"/>
<path d="M37.0794 16.6956H35.7071V15.3043H37.0794V16.6956Z" fill="#ECD979"/>
<path d="M32.9624 16.6956H31.5901V15.3043H32.9624V16.6956Z" fill="#ECD979"/>
<path d="M28.8455 16.6956H27.4732V15.3043H28.8455V16.6956Z" fill="#ECD979"/>
<path d="M27.4731 16.6956H26.1008V15.3043H27.4731V16.6956Z" fill="#ECD979"/>
<path d="M16.4949 16.6956H15.1226V15.3043H16.4949V16.6956Z" fill="#ECD979"/>
<path d="M15.1226 16.6956H13.7503V15.3043H15.1226V16.6956Z" fill="#ECD979"/>
<path d="M11.0057 16.6956H9.63335V15.3043H11.0057V16.6956Z" fill="#ECD979"/>
<path d="M6.88871 16.6956H5.51639V15.3043H6.88871V16.6956Z" fill="#ECD979"/>
<path d="M5.51638 16.6956H4.14406V15.3043H5.51638V16.6956Z" fill="#ECD979"/>
<path d="M4.14406 16.6956H2.77174V15.3043H4.14406V16.6956Z" fill="#ECD979"/>
<path d="M34.3348 15.3044H32.9624V13.913H34.3348V15.3044Z" fill="#ECD979"/>
<path d="M32.9624 15.3044H31.5901V13.913H32.9624V15.3044Z" fill="#ECD979"/>
<path d="M27.4731 15.3044H26.1008V13.913H27.4731V15.3044Z" fill="#ECD979"/>
<path d="M26.1008 15.3044H24.7285V13.913H26.1008V15.3044Z" fill="#ECD979"/>
<path d="M17.8673 15.3044H16.4949V13.913H17.8673V15.3044Z" fill="#ECD979"/>
<path d="M16.4949 15.3044H15.1226V13.913H16.4949V15.3044Z" fill="#ECD979"/>
<path d="M11.0057 15.3044H9.63335V13.913H11.0057V15.3044Z" fill="#ECD979"/>
<path d="M9.63334 15.3044H8.26102V13.913H9.63334V15.3044Z" fill="#ECD979"/>
<path d="M35.7071 13.913H34.3347V12.5217H35.7071V13.913Z" fill="#ECD979"/>
<path d="M34.3348 13.913H32.9624V12.5217H34.3348V13.913Z" fill="#ECD979"/>
<path d="M32.9624 13.913H31.5901V12.5217H32.9624V13.913Z" fill="#ECD979"/>
<path d="M26.1008 13.913H24.7285V12.5217H26.1008V13.913Z" fill="#ECD979"/>
<path d="M24.7285 13.913H23.3562V12.5217H24.7285V13.913Z" fill="#ECD979"/>
<path d="M19.2396 13.913H17.8673V12.5217H19.2396V13.913Z" fill="#ECD979"/>
<path d="M17.8673 13.913H16.4949V12.5217H17.8673V13.913Z" fill="#ECD979"/>
<path d="M11.0057 13.913H9.63335V12.5217H11.0057V13.913Z" fill="#ECD979"/>
<path d="M9.63334 13.913H8.26102V12.5217H9.63334V13.913Z" fill="#ECD979"/>
<path d="M8.26102 13.913H6.8887V12.5217H8.26102V13.913Z" fill="#ECD979"/>
<path d="M35.7071 12.5217H34.3347V11.1304H35.7071V12.5217Z" fill="#ECD979"/>
<path d="M34.3348 12.5217H32.9624V11.1304H34.3348V12.5217Z" fill="#ECD979"/>
<path d="M24.7285 12.5217H23.3562V11.1304H24.7285V12.5217Z" fill="#ECD979"/>
<path d="M23.3562 12.5217H21.9839V11.1304H23.3562V12.5217Z" fill="#ECD979"/>
<path d="M20.6119 12.5217H19.2396V11.1304H20.6119V12.5217Z" fill="#ECD979"/>
<path d="M19.2396 12.5217H17.8673V11.1304H19.2396V12.5217Z" fill="#ECD979"/>
<path d="M9.63334 12.5217H8.26102V11.1304H9.63334V12.5217Z" fill="#ECD979"/>
<path d="M8.26102 12.5217H6.8887V11.1304H8.26102V12.5217Z" fill="#ECD979"/>
<path d="M35.7071 11.1304H34.3347V9.73913H35.7071V11.1304Z" fill="#ECD979"/>
<path d="M23.3562 11.1304H21.9839V9.73913H23.3562V11.1304Z" fill="#ECD979"/>
<path d="M20.6119 11.1304H19.2396V9.73913H20.6119V11.1304Z" fill="#ECD979"/>
<path d="M8.26102 11.1304H6.8887V9.73913H8.26102V11.1304Z" fill="#ECD979"/>
<path d="M42.5687 9.73911H41.1964V8.3478H42.5687V9.73911Z" fill="#ECD979"/>
<path d="M1.39942 9.73911H0.0270996V8.3478H1.39942V9.73911Z" fill="#ECD979"/>
<path d="M42.5687 8.34781H41.1964V6.9565H42.5687V8.34781Z" fill="#ECD979"/>
<path d="M41.1964 8.34781H39.824V6.9565H41.1964V8.34781Z" fill="#ECD979"/>
<path d="M28.8455 8.34781H27.4732V6.9565H28.8455V8.34781Z" fill="#ECD979"/>
<path d="M27.4731 8.34781H26.1008V6.9565H27.4731V8.34781Z" fill="#ECD979"/>
<path d="M26.1008 8.34781H24.7285V6.9565H26.1008V8.34781Z" fill="#ECD979"/>
<path d="M17.8673 8.34781H16.4949V6.9565H17.8673V8.34781Z" fill="#ECD979"/>
<path d="M16.4949 8.34781H15.1226V6.9565H16.4949V8.34781Z" fill="#ECD979"/>
<path d="M15.1226 8.34781H13.7503V6.9565H15.1226V8.34781Z" fill="#ECD979"/>
<path d="M2.77175 8.34781H1.39943V6.9565H2.77175V8.34781Z" fill="#ECD979"/>
<path d="M1.39942 8.34781H0.0270996V6.9565H1.39942V8.34781Z" fill="#ECD979"/>
<path d="M42.5687 6.95651H41.1964V5.56521H42.5687V6.95651Z" fill="#ECD979"/>
<path d="M41.1964 6.95651H39.824V5.56521H41.1964V6.95651Z" fill="#ECD979"/>
<path d="M39.824 6.95651H38.4517V5.56521H39.824V6.95651Z" fill="#ECD979"/>
<path d="M30.2178 6.95651H28.8455V5.56521H30.2178V6.95651Z" fill="#ECD979"/>
<path d="M28.8455 6.95651H27.4732V5.56521H28.8455V6.95651Z" fill="#ECD979"/>
<path d="M27.4731 6.95651H26.1008V5.56521H27.4731V6.95651Z" fill="#ECD979"/>
<path d="M23.3562 6.95651H21.9839V5.56521H23.3562V6.95651Z" fill="#ECD979"/>
<path d="M20.6119 6.95651H19.2396V5.56521H20.6119V6.95651Z" fill="#ECD979"/>
<path d="M16.4949 6.95651H15.1226V5.56521H16.4949V6.95651Z" fill="#ECD979"/>
<path d="M15.1226 6.95651H13.7503V5.56521H15.1226V6.95651Z" fill="#ECD979"/>
<path d="M13.7503 6.95651H12.378V5.56521H13.7503V6.95651Z" fill="#ECD979"/>
<path d="M4.14406 6.95651H2.77174V5.56521H4.14406V6.95651Z" fill="#ECD979"/>
<path d="M2.77175 6.95651H1.39943V5.56521H2.77175V6.95651Z" fill="#ECD979"/>
<path d="M1.39942 6.95651H0.0270996V5.56521H1.39942V6.95651Z" fill="#ECD979"/>
<path d="M41.1964 5.56522H39.824V4.17391H41.1964V5.56522Z" fill="#ECD979"/>
<path d="M39.824 5.56522H38.4517V4.17391H39.824V5.56522Z" fill="#ECD979"/>
<path d="M38.4517 5.56522H37.0794V4.17391H38.4517V5.56522Z" fill="#ECD979"/>
<path d="M31.5901 5.56522H30.2178V4.17391H31.5901V5.56522Z" fill="#ECD979"/>
<path d="M30.2178 5.56522H28.8455V4.17391H30.2178V5.56522Z" fill="#ECD979"/>
<path d="M28.8455 5.56522H27.4732V4.17391H28.8455V5.56522Z" fill="#ECD979"/>
<path d="M24.7285 5.56522H23.3562V4.17391H24.7285V5.56522Z" fill="#ECD979"/>
<path d="M23.3562 5.56522H21.9839V4.17391H23.3562V5.56522Z" fill="#ECD979"/>
<path d="M20.6119 5.56522H19.2396V4.17391H20.6119V5.56522Z" fill="#ECD979"/>
<path d="M19.2396 5.56522H17.8673V4.17391H19.2396V5.56522Z" fill="#ECD979"/>
<path d="M15.1226 5.56522H13.7503V4.17391H15.1226V5.56522Z" fill="#ECD979"/>
<path d="M13.7503 5.56522H12.378V4.17391H13.7503V5.56522Z" fill="#ECD979"/>
<path d="M12.378 5.56522H11.0057V4.17391H12.378V5.56522Z" fill="#ECD979"/>
<path d="M5.51638 5.56522H4.14406V4.17391H5.51638V5.56522Z" fill="#ECD979"/>
<path d="M4.14406 5.56522H2.77174V4.17391H4.14406V5.56522Z" fill="#ECD979"/>
<path d="M2.77175 5.56522H1.39943V4.17391H2.77175V5.56522Z" fill="#ECD979"/>
<path d="M39.824 4.17389H38.4517V2.78259H39.824V4.17389Z" fill="#ECD979"/>
<path d="M38.4517 4.17389H37.0794V2.78259H38.4517V4.17389Z" fill="#ECD979"/>
<path d="M37.0794 4.17389H35.7071V2.78259H37.0794V4.17389Z" fill="#ECD979"/>
<path d="M26.1008 4.17389H24.7285V2.78259H26.1008V4.17389Z" fill="#ECD979"/>
<path d="M24.7285 4.17389H23.3562V2.78259H24.7285V4.17389Z" fill="#ECD979"/>
<path d="M23.3562 4.17389H21.9839V2.78259H23.3562V4.17389Z" fill="#ECD979"/>
<path d="M20.6119 4.17389H19.2396V2.78259H20.6119V4.17389Z" fill="#ECD979"/>
<path d="M19.2396 4.17389H17.8673V2.78259H19.2396V4.17389Z" fill="#ECD979"/>
<path d="M17.8673 4.17389H16.4949V2.78259H17.8673V4.17389Z" fill="#ECD979"/>
<path d="M6.88871 4.17389H5.51639V2.78259H6.88871V4.17389Z" fill="#ECD979"/>
<path d="M5.51638 4.17389H4.14406V2.78259H5.51638V4.17389Z" fill="#ECD979"/>
<path d="M4.14406 4.17389H2.77174V2.78259H4.14406V4.17389Z" fill="#ECD979"/>
<path d="M43.941 2.78259H42.5687V1.39129H43.941V2.78259Z" fill="#ECD979"/>
<path d="M38.4517 2.78259H37.0794V1.39129H38.4517V2.78259Z" fill="#ECD979"/>
<path d="M37.0794 2.78259H35.7071V1.39129H37.0794V2.78259Z" fill="#ECD979"/>
<path d="M35.7071 2.78259H34.3347V1.39129H35.7071V2.78259Z" fill="#ECD979"/>
<path d="M26.1008 2.78259H24.7285V1.39129H26.1008V2.78259Z" fill="#ECD979"/>
<path d="M24.7285 2.78259H23.3562V1.39129H24.7285V2.78259Z" fill="#ECD979"/>
<path d="M19.2396 2.78259H17.8673V1.39129H19.2396V2.78259Z" fill="#ECD979"/>
<path d="M17.8673 2.78259H16.4949V1.39129H17.8673V2.78259Z" fill="#ECD979"/>
<path d="M8.26102 2.78259H6.8887V1.39129H8.26102V2.78259Z" fill="#ECD979"/>
<path d="M6.88871 2.78259H5.51639V1.39129H6.88871V2.78259Z" fill="#ECD979"/>
<path d="M5.51638 2.78259H4.14406V1.39129H5.51638V2.78259Z" fill="#ECD979"/>
<path d="M43.941 1.3913H42.5687V-7.7486e-06H43.941V1.3913Z" fill="#ECD979"/>
<path d="M42.5687 1.3913H41.1964V-7.7486e-06H42.5687V1.3913Z" fill="#ECD979"/>
<path d="M37.0794 1.3913H35.7071V-7.7486e-06H37.0794V1.3913Z" fill="#ECD979"/>
<path d="M35.7071 1.3913H34.3347V-7.7486e-06H35.7071V1.3913Z" fill="#ECD979"/>
<path d="M34.3348 1.3913H32.9624V-7.7486e-06H34.3348V1.3913Z" fill="#ECD979"/>
<path d="M26.1008 1.3913H24.7285V-7.7486e-06H26.1008V1.3913Z" fill="#ECD979"/>
<path d="M17.8673 1.3913H16.4949V-7.7486e-06H17.8673V1.3913Z" fill="#ECD979"/>
<path d="M9.63334 1.3913H8.26102V-7.7486e-06H9.63334V1.3913Z" fill="#ECD979"/>
<path d="M8.26102 1.3913H6.8887V-7.7486e-06H8.26102V1.3913Z" fill="#ECD979"/>
<path d="M6.88871 1.3913H5.51639V-7.7486e-06H6.88871V1.3913Z" fill="#ECD979"/>
<path d="M1.39942 1.3913H0.0270996V-7.7486e-06H1.39942V1.3913Z" fill="#ECD979"/>
</g>
<defs>
<clipPath id="clip0_13575_50">
<rect width="44" height="39" fill="white"/>
</clipPath>
</defs>
</svg>
